<?xml version="1.0" encoding="utf-8"?>
<!-- Generator: Adobe Illustrator 27.6.1, SVG Export Plug-In . SVG Version: 6.00 Build 0)  -->
<svg version="1.1" xmlns="http://www.w3.org/2000/svg" xmlns:xlink="http://www.w3.org/1999/xlink" x="0px" y="0px"
	 viewBox="0 0 325 155" style="enable-background:new 0 0 325 155;" xml:space="preserve">
<style type="text/css">
	.st0{fill:#3077BD;}
	.st1{fill:#FFFFFF;}
</style>
<g id="blue_background">
	<path class="st0" d="M325,0H0v139.7c0,0,50.8,15.3,163.6,15.3c112.8,0,161.4-15.3,161.4-15.3V0z"/>
</g>
<g id="Layer_1">
	<path class="st1" d="M95.3,75c-1.5,2.6-5.3,7-5.3,7s-1.5,2.2-3.4,2.5c-1.7,0.3-1.6-1-1.3-2.1c0.8-2.7,3.3-5.1,5.3-7.1
		c0.8-0.8,2.7-2.8,3.7-3c0.3-0.1,0.6,0,0.9,0c0.2,0.1,0.4,0.2,0.5,0.4c0.4,0.4,0.4,1.1,0.2,1.5C95.6,74.4,95.4,74.9,95.3,75z
		 M140.8,66.9c1-1.4,4.9-7,6.8-6.1c1.8,0.8-2.3,6.4-3,7.4c-1.7,2.2-4.9,5.2-7.6,6.8C132.9,77.9,139.8,68.2,140.8,66.9L140.8,66.9z
		 M171.3,76.1c-1.3-0.3-2.7,1.6-3.5,2.3c-1.2,1-2.5,1.9-4,2.7c-2.6,1.3-5.5,2.1-8.4,2.3c-1.6,0-2.8,0.1-3.3-1.6
		c-0.4-1.6,0.2-2.9,1.2-4.1c0.8-1,2.7-2.4,1.9-4c-0.6-1.2-1.8-0.6-2.6,0c-1,0.8-1.7,2.3-2.5,3.3c-1.2,1.4-2.5,2.6-4,3.6
		c-2.4,1.7-5.8,3.7-8.7,4c-3.6,0.3-3.4-3.6-1.9-5.8c1.2-1.8,6-4.9,8.4-7.3c2.3-2.3,4.7-5,5.8-8.1c0.7-2.1,1.1-6.8-2.3-5.4
		c-2.7,1.1-5.2,4.1-6.9,6.5c-1.7,2.4-3.7,5.4-5,7.7c-1.5,2.6-2.8,5.5-5.3,7.3c-2.4,1.7-6,3-8.9,3.4c-2.4,0.3-4.8-0.3-4.7-3.2
		c0.1-2.1,1.9-4.4-0.3-5.9c-3.3-2.2-5.6,0.8-7.9,3c-2.2,2.1-4.2,4.2-6.9,5.6c-3.3,1.7-4.3-0.6-4-3.6c0.2-2.7,1.9-5.9,0.3-8.5
		C95,66.2,87,75.3,85.4,77.8c-1.2,1.9-3.7,6-2.8,8.2c1.2,3.1,5.5,0.9,7.2-0.8c1.1-1,2.1-2.1,3.2-3.3c1-1.2,1.2-0.9,1.9,0.4
		c1.1,2.2,2,3.5,5,3.2c2.9-0.3,5.7-2.5,7.6-4.5c0.9-0.9,4.5-5.5,5.9-3.9c0.7,0.8,0.1,3.3,0.5,4.4c0.4,1,1.1,1.9,2,2.6
		c2.4,1.8,5.5,1.4,8.1,0.6c1.2-0.3,6.6-3.1,7.6-2.8c1.1,0.4,0.4,2.5,2,4c0.5,0.5,1.3,0.8,2,0.9c3.2,0.5,6.8-1.8,9.4-3.4
		c0.9-0.5,2.8-2,3.8-2c0.5,0,0.4,0.8,0.9,2c1.1,2.8,5.4,2.6,7.7,2.1c1.8-0.4,3.6-1.1,5.3-1.8c1-0.4,3.2-1.7,4-1.6
		c2.1,0.5,0,5.3-1,6.3c-0.6,0.6-2.5,1.4-1.5,2.6c0.5,0.6,2.4,0.1,2.9-0.2c2.3-1.4,2.5-5.6,2.9-7.8c0.3-1.4,0.6-2.8,1.2-4.1
		C171.6,78.1,173.1,76.5,171.3,76.1L171.3,76.1z"/>
	<path class="st1" d="M73.9,54.5c0.6-0.7,2.2-1.8,2.9-0.2c0.7,1.6-3,5.9-4.3,7.4c-5.3,5.8-6.9,7.5-8.4,7.9c-0.1,0-0.1,0-0.1-0.1
		C65.5,66.1,69.1,59.8,73.9,54.5z M80.2,84.4c-0.4-0.8-1.9-1-2.6-1.6c-2.2-2-1.4-4.8-1.2-7.4c0,0,0-0.1,0-0.1c0.1-0.7,0.1-1.5-0.2-2
		c0,0,0,0,0,0c-0.2-0.5-0.5-0.8-1.2-0.8c-1,0-2.6,1.9-3.3,2.6c-2.7,2.6-5.3,5.5-8,8.2c-1.3,1.3-5.3,4.8-4.7,0.5
		c0.5-3.3,2.2-7,4.1-9.7c3.9-5.4,9.4-9.4,13.3-14.8c1.3-1.8,3.6-5.5,3.3-7.9c-0.5-3.4-4.2-0.9-5.5,0.3c-4.6,3.9-8,10-10.9,15.2
		c-1.4,2.6-2.6,5.4-4.5,7.7c-1.8,2.1-4.1,4.1-6.1,6c-4.2,4-9.4,7.6-15,9.3c-2.1,0.6-5.1,1.6-6.7-0.5c-1.6-2.1-0.7-5.6-0.1-7.9
		c1.4-5.8,4.4-10.9,7.7-15.8c3.6-5.3,5.6-8.1,10-12.6c2.2-2.2,4.5-4.2,7.3-5.5c0.8-0.4,2.1-0.7,2.4-1.7c0.3-0.9-0.6-2-1.5-2.2
		c-2.2-0.5-5.8,3.4-7.2,4.7c-2.1,2-4.1,4.1-6,6.2c-4.3,4.7-6.1,7.4-9.6,12.8c-3.4,5.1-6.5,11.1-6.5,17.4c0,6.1,4.2,8.9,10,7.9
		c1-0.2,2-0.5,3-0.8c0,0,0,0,0.1,0c0,0,0,0,0,0c0,0,0.1,0,0.1-0.1c0.1,0,0.1-0.1,0.2-0.1c0,0,0.1,0,0.1-0.1c0.7-0.3,1.3-0.5,1.9-0.9
		c1.2-0.5,2.3-1,3.4-1.7c0,0,0,0,0,0c0.5-0.3,1-0.6,1.4-0.9c1.5-0.8,2.9-2.1,4.2-3c1.7-1.2,3.3-2.5,4.9-3.8c0,0,0,0,0.1,0
		c-0.1,0.5-0.3,1-0.4,1.4c-0.8,2.2-1.5,5.8,1.5,6.9c2.3,0.8,5.7-3.5,7.1-4.9c1.8-1.7,3.6-3.9,5.5-5.4c2.3-1.8,1.9,1.3,2.5,3.1
		c0.8,2.1,2.8,4.3,5.2,4.1C79.8,86.4,81,85.8,80.2,84.4L80.2,84.4z"/>
	<path class="st1" d="M196.7,91.5c1.9,0,3.8-1.4,5.1-2.7c0.8-0.8,3.1-3.7,1-3.9c-1.7-0.1-4.9,2.1-6.2,3.1
		C195,89.2,193.4,91.6,196.7,91.5L196.7,91.5z M256.2,81.5c4.2,0.1,8.8-4.1,11.7-6.9c1.3-1.2,3.6-3.4,4.5-4.8c1.3-2-3.4-1.4-4.5-1.3
		c-2.5,0.2-5,0.4-7.7,0.7c-1.6,0.1-3,2.4-4.1,4.2C254.5,75.8,251.2,81.6,256.2,81.5L256.2,81.5z M285.1,64.8c1.1,0,5.7-0.4,5.8,0.8
		c0.1,1-0.5,1.2-2.1,1.3c-3.5,0.2-9.6-0.7-12.4,1.9c-2.8,2.6-5.1,7.1-7.1,10.4c-2.3,3.9-3.6,7.9-5.1,12.2c-0.5,1.3-1.9,2-2.4,0.5
		c-0.6-1.7,0.8-4.3,1.4-5.8c0.8-1.7,1.9-3.3,2.6-5c0.8-1.9-0.5-1.6-1.8-0.7c-3.2,2.1-6.3,4.8-10.4,3.5c-3.3-1-2.2-4.9-3-5.2
		c-1.1-0.3-3,1.2-3.7,1.7c-1.8,1.4-3.8,2.4-5.9,3.4c-2.6,1.2-8.2,3.3-10.9,1.3c-0.9-0.6-1-1.3-1.8-3.2c-0.5-1.2-1.6-0.4-2.9,1
		c-1.4,1.5-7.5,7.4-9,3.3c-0.6-1.7,0.6-3.6,1.3-5c1.5-3.4-1.1-2-3.1-1.2c-1.9,0.8-4.2,1.5-6.2,2.6c-1.5,0.7-1.8,3.3-2.7,4.7
		c-1.8,2.8-4.9,5.6-8.3,6.2c-3.5,0.7-7.1-1.9-4.5-5.5c2.3-3.1,6.5-4,9.6-5.6c2.7-1.4,3.3-3.4,2.2-6.3c-1.2-3.3-4.7-6.8-4.1-10.5
		c0.6-3.5,3.7-6.3,5.4-9.2c2.5-4.1-1.8-4.2-5-4.1c-2.1,0.1-4.2,0.6-6.3,1.1c-1.1,0.3-4.8,2-5-0.4c-0.3-2.3,9.1-3,10.8-3.1
		c3-0.3,9.3-0.9,9.4,3.7c0.1,4.2-4,6.4-5.6,9.7c-1.6,3.3,0.3,6.6,1.8,9.6c0.9,1.8,1.2,3.5,1.7,5.5c0.4,1.9,2,1,3.6,0.4
		c2-0.8,3.7-1.9,5.5-2.9c1.2-0.7,3.9-3,5.2-3c3.9-0.1-2.5,8.1-2.5,9.5c-0.1,2.4,1.9,0.9,2.9,0c1.7-1.5,3.4-3,5-4.7
		c1.4-1.5,2.9-4,4.7-5c0.6-0.4,1.2-0.8,1.8-0.1c0.8,0.8,0,1.8-0.5,2.6c-1,1.7-2.6,3.6-2.3,5.8c0.3,2,1.7,2.9,3.5,2.7
		c3.5-0.3,7.3-2.5,10.2-4.4c3-1.9,6.5-4.8,8.8-7.6c1.9-2.4,0.6-2.1-1.1-1.9c-1.9,0.3-4.8,1.4-6.3,0.9c-1.5-0.4-1.4-1.6,0-2.1
		c2.2-0.9,5.1-0.8,7.4-1.1c1.6-0.2,3.2-0.6,4.3-1.9c1-1.2,2-4.4,3.7-4.6c1.6-0.2,1.7,1.4,1.1,2.5c-0.5,0.8-2.3,3-0.9,3.1
		c0.8,0.1,9-0.4,11.3-0.7c1.7-0.2,2.3-1.2,3.1-2.7c0.5-1,1.7-3.8,3-2.7c1.4,1.1-1.9,4.6,0.4,4.4C280.2,65,285.1,64.8,285.1,64.8
		L285.1,64.8z"/>
	<path class="st1" d="M180.5,88.3c0.3-2.5,5.3-12.6,8.4-18.5c1.5-2.9,3.1-6.1,4.9-8.8c0.5-0.7,1.2-1.7,2.1-1.3
		c1.5,0.6,0.5,1.9,0,2.7c-3.2,5.8-6.6,11.4-9.2,17.5c-1.3,3-2,6.1-3.2,9.1C182.6,91.3,180.2,90.8,180.5,88.3L180.5,88.3z"/>
	<path class="st1" d="M69.3,110.6c0.3,0,0.6-0.1,0.8-0.2c0.2-0.1,0.3-0.3,0.4-0.5c0.1-0.3,0.1-0.6,0.1-1.1v-7.1c0-0.3,0-0.6,0-0.9
		c0-0.3,0-0.5,0-0.6c-0.2,0-0.4,0-0.7,0c-0.3,0-0.5,0-0.6,0v-1.2H78l0.1,3.4h-1c0-0.7-0.1-1.2-0.3-1.5c-0.2-0.3-0.5-0.6-0.9-0.7
		c-0.3-0.1-0.7-0.2-1.1-0.2l-0.9,0c-0.3,0-0.6,0.1-0.7,0.2c-0.2,0.1-0.3,0.3-0.4,0.5c-0.1,0.3-0.1,0.6-0.1,1v3.1H75l-0.1-1.5h1.2
		v4.2h-1c0-0.5-0.1-0.9-0.2-1.1s-0.4-0.4-0.7-0.4c-0.3-0.1-0.6-0.1-1,0l-0.5,0v2.9c0,0.3,0,0.6,0,0.9c0,0.3,0,0.5-0.1,0.6
		c0.2,0,0.3,0,0.6,0s0.4,0,0.6,0c0.2,0,0.4,0,0.5,0v1.2h-5.1V110.6z"/>
	<path class="st1" d="M91.1,111.9c-1.1,0-2.1-0.2-2.9-0.6c-0.8-0.4-1.4-0.9-1.9-1.5c-0.5-0.6-0.9-1.3-1.1-2.1
		c-0.2-0.8-0.3-1.6-0.3-2.3s0.1-1.5,0.4-2.3c0.3-0.8,0.6-1.5,1.2-2.1c0.5-0.6,1.2-1.2,2-1.6c0.8-0.4,1.7-0.6,2.8-0.6
		c1.1,0,2,0.2,2.8,0.6c0.8,0.4,1.4,0.9,2,1.6c0.5,0.7,0.9,1.4,1.1,2.1c0.2,0.8,0.4,1.5,0.4,2.3c0,0.8-0.1,1.5-0.4,2.3
		c-0.3,0.8-0.6,1.5-1.2,2.1c-0.5,0.7-1.2,1.2-2,1.6C93.1,111.7,92.2,111.9,91.1,111.9L91.1,111.9z M91.2,110.8
		c0.7,0,1.2-0.2,1.7-0.5c0.5-0.3,0.8-0.7,1.1-1.2c0.3-0.5,0.5-1.1,0.6-1.7c0.1-0.6,0.2-1.2,0.2-1.8c0-0.8-0.1-1.6-0.3-2.2
		c-0.2-0.7-0.4-1.3-0.7-1.8c-0.3-0.5-0.7-0.9-1.2-1.2c-0.5-0.3-1.1-0.4-1.7-0.4c-0.7,0-1.2,0.2-1.7,0.5c-0.5,0.3-0.8,0.7-1.1,1.2
		c-0.3,0.5-0.5,1.1-0.6,1.7c-0.1,0.6-0.2,1.2-0.2,1.8c0,0.6,0.1,1.2,0.2,1.9c0.1,0.7,0.4,1.3,0.7,1.9c0.3,0.6,0.7,1.1,1.2,1.4
		C89.9,110.6,90.5,110.8,91.2,110.8L91.2,110.8z"/>
	<path class="st1" d="M109,100c-0.3,0-0.6,0.1-0.7,0.2c-0.2,0.1-0.3,0.2-0.4,0.5c-0.1,0.2-0.1,0.5-0.1,0.9v4.8
		c0,0.7,0.1,1.3,0.2,1.9c0.1,0.5,0.3,1,0.6,1.3c0.3,0.4,0.6,0.6,1,0.8c0.4,0.2,0.8,0.3,1.4,0.3c0.7,0,1.3-0.1,1.8-0.4
		c0.5-0.3,0.9-0.8,1.1-1.4c0.3-0.6,0.4-1.4,0.4-2.3l0-4.8c0-0.3,0-0.6,0-0.9c0-0.3,0-0.5,0.1-0.6c-0.2,0-0.4,0-0.7,0s-0.5,0-0.6,0
		V99h3.9v1c-0.3,0-0.6,0.1-0.8,0.2c-0.2,0.1-0.3,0.3-0.4,0.5c-0.1,0.3-0.1,0.6-0.1,1.1l0,4.4c0,0.9-0.1,1.8-0.3,2.5
		c-0.2,0.7-0.5,1.3-1,1.8c-0.4,0.5-1,0.8-1.6,1.1c-0.6,0.2-1.3,0.4-2.1,0.4c-1,0-1.8-0.1-2.5-0.4c-0.7-0.3-1.2-0.7-1.6-1.2
		c-0.4-0.5-0.7-1.1-0.8-1.8c-0.2-0.7-0.2-1.5-0.2-2.4v-4.1c0-0.3,0-0.6,0-1c0-0.3,0-0.6,0-0.8c-0.2,0-0.4,0-0.7,0s-0.5,0-0.6,0V99
		h4.8L109,100L109,100z"/>
	<path class="st1" d="M133.3,111.8l-6.2-8.1c-0.1-0.2-0.3-0.4-0.4-0.6c-0.1-0.2-0.3-0.4-0.4-0.6h0l0,6.2c0,0.3,0,0.6,0,0.9
		c0,0.3,0,0.5,0,0.7c0.2,0,0.4,0,0.7,0c0.3,0,0.5,0,0.6,0v1.2h-3.8v-1c0.3,0,0.6-0.1,0.7-0.1c0.2-0.1,0.3-0.2,0.4-0.5
		c0.1-0.2,0.1-0.5,0.1-0.9l0-7.4c0-0.3,0-0.6,0-0.8c0-0.3,0-0.5,0-0.6c-0.2,0-0.4,0-0.7,0c-0.3,0-0.5,0-0.6,0V99h2.6l5.9,7.6
		c0.3,0.3,0.5,0.6,0.7,0.9c0.2,0.3,0.3,0.5,0.5,0.7h0v-6.5c0-0.3,0-0.6,0-0.9c0-0.3,0-0.5,0-0.6c-0.2,0-0.4,0-0.7,0
		c-0.3,0-0.5,0-0.6,0V99h3.8v1c-0.3,0-0.6,0.1-0.8,0.2c-0.2,0.1-0.3,0.3-0.4,0.5s-0.1,0.6-0.1,1.1l0,10L133.3,111.8L133.3,111.8z"/>
	<path class="st1" d="M142.7,110.6c0.3,0,0.6-0.1,0.8-0.2s0.3-0.3,0.4-0.5c0.1-0.3,0.1-0.6,0.1-1.1v-7.1c0-0.3,0-0.6,0-0.9
		c0-0.3,0-0.5,0-0.6c-0.2,0-0.4,0-0.7,0c-0.3,0-0.5,0-0.6,0v-1.2l4.9,0c1.1,0,2.2,0.2,3,0.5c0.9,0.3,1.6,0.8,2.2,1.3
		c0.6,0.6,1,1.2,1.3,2c0.3,0.8,0.5,1.6,0.5,2.4c0,0.8-0.1,1.5-0.4,2.3c-0.3,0.8-0.7,1.4-1.2,2c-0.6,0.6-1.3,1.1-2.2,1.5
		c-0.9,0.4-1.9,0.6-3.1,0.6h-5L142.7,110.6L142.7,110.6z M146.2,108.9c0,0.3,0,0.6,0,0.9c0,0.3,0,0.5-0.1,0.6c0.2,0,0.4,0,0.6,0
		c0.2,0,0.4,0,0.7,0c0.2,0,0.4,0,0.5,0c0.7,0,1.3-0.1,1.8-0.4c0.5-0.3,1-0.6,1.3-1.1s0.6-1,0.8-1.6c0.2-0.6,0.3-1.2,0.3-1.9
		c0-1.2-0.2-2.2-0.5-3c-0.4-0.8-0.9-1.4-1.6-1.8c-0.7-0.4-1.5-0.6-2.5-0.6c-0.3,0-0.6,0-0.8,0.1c-0.2,0.1-0.3,0.3-0.4,0.5
		c-0.1,0.3-0.1,0.6-0.1,1.1L146.2,108.9L146.2,108.9z"/>
	<path class="st1" d="M160,111.6v-1c0.3,0,0.6-0.1,0.8-0.3c0.2-0.2,0.4-0.4,0.5-0.8c0.1-0.3,0.3-0.7,0.4-1.1l3.4-9.4h1.2l3.8,9.6
		c0.1,0.2,0.2,0.5,0.3,0.9c0.1,0.4,0.2,0.7,0.2,1c0.2,0,0.4,0,0.6,0c0.2,0,0.4,0,0.5,0v1.2h-4.6v-1c0.4,0,0.6-0.1,0.8-0.2
		c0.1-0.2,0.2-0.4,0.2-0.6c0-0.3-0.1-0.5-0.2-0.8l-0.4-1.2l-4.2,0.1l-0.4,1.2c-0.1,0.2-0.2,0.4-0.3,0.7c-0.1,0.3-0.2,0.5-0.3,0.7
		c0.2,0,0.4,0,0.7,0c0.3,0,0.5,0,0.6,0v1.2L160,111.6L160,111.6z M163.6,106.7h3.4l-1-2.6c-0.1-0.4-0.3-0.8-0.4-1.2
		c-0.1-0.4-0.2-0.8-0.3-1.1h0c-0.1,0.2-0.2,0.6-0.3,0.9c-0.1,0.4-0.2,0.8-0.4,1.3L163.6,106.7z"/>
	<path class="st1" d="M187,103c0-0.7-0.1-1.2-0.3-1.7c-0.2-0.4-0.4-0.8-0.7-1c-0.3-0.2-0.7-0.3-1.2-0.3h-1.1v8.8c0,0.3,0,0.6,0,0.9
		c0,0.3,0,0.5-0.1,0.6c0.2,0,0.5,0,0.8,0c0.3,0,0.5,0,0.7,0v1.2h-4.9v-1c0.3,0,0.6-0.1,0.8-0.2s0.3-0.3,0.4-0.5
		c0.1-0.3,0.1-0.6,0.1-1.1l0-8.7h-1.2c-0.7,0-1.2,0.3-1.6,0.7s-0.6,1.2-0.6,2.2h-1l0.1-4h10.7l0.1,4H187L187,103z"/>
	<path class="st1" d="M199.5,100c-0.3,0-0.6,0.1-0.8,0.2c-0.2,0.1-0.3,0.3-0.4,0.5c-0.1,0.3-0.1,0.6-0.1,1.1v7.1c0,0.3,0,0.6,0,0.9
		c0,0.3,0,0.5-0.1,0.6c0.2,0,0.4,0,0.7,0c0.3,0,0.5,0,0.6,0v1.2h-4.8v-1c0.3,0,0.6-0.1,0.8-0.2c0.2-0.1,0.3-0.3,0.4-0.5
		c0.1-0.3,0.1-0.6,0.1-1.1v-7.1c0-0.3,0-0.6,0-0.9c0-0.3,0-0.5,0-0.6c-0.2,0-0.4,0-0.7,0c-0.3,0-0.5,0-0.6,0v-1.2h4.8V100z"/>
	<path class="st1" d="M212.6,111.9c-1.1,0-2.1-0.2-2.9-0.6c-0.8-0.4-1.4-0.9-1.9-1.5c-0.5-0.6-0.9-1.3-1.1-2.1
		c-0.2-0.8-0.3-1.6-0.3-2.3c0-0.8,0.1-1.5,0.4-2.3c0.3-0.8,0.6-1.5,1.2-2.1c0.5-0.6,1.2-1.2,2-1.6c0.8-0.4,1.7-0.6,2.8-0.6
		c1.1,0,2,0.2,2.8,0.6c0.8,0.4,1.4,0.9,2,1.6c0.5,0.7,0.9,1.4,1.1,2.1c0.2,0.8,0.4,1.5,0.4,2.3c0,0.8-0.1,1.5-0.4,2.3
		c-0.3,0.8-0.6,1.5-1.2,2.1c-0.5,0.7-1.2,1.2-2,1.6C214.6,111.7,213.7,111.9,212.6,111.9L212.6,111.9z M212.7,110.8
		c0.7,0,1.2-0.2,1.7-0.5s0.8-0.7,1.1-1.2c0.3-0.5,0.5-1.1,0.6-1.7c0.1-0.6,0.2-1.2,0.2-1.8c0-0.8-0.1-1.6-0.3-2.2
		c-0.2-0.7-0.4-1.3-0.7-1.8c-0.3-0.5-0.7-0.9-1.2-1.2c-0.5-0.3-1.1-0.4-1.7-0.4c-0.7,0-1.2,0.2-1.7,0.5c-0.5,0.3-0.8,0.7-1.1,1.2
		c-0.3,0.5-0.5,1.1-0.6,1.7c-0.1,0.6-0.2,1.2-0.2,1.8c0,0.6,0.1,1.2,0.2,1.9c0.1,0.7,0.4,1.3,0.7,1.9c0.3,0.6,0.7,1.1,1.2,1.4
		C211.4,110.6,212,110.8,212.7,110.8L212.7,110.8z"/>
	<path class="st1" d="M235.3,111.8l-6.2-8.1c-0.1-0.2-0.3-0.4-0.4-0.6c-0.1-0.2-0.3-0.4-0.4-0.6h0l0,6.2c0,0.3,0,0.6,0,0.9
		c0,0.3,0,0.5,0,0.7c0.2,0,0.4,0,0.7,0c0.3,0,0.5,0,0.6,0v1.2h-3.8v-1c0.3,0,0.6-0.1,0.7-0.1c0.2-0.1,0.3-0.2,0.4-0.5
		c0.1-0.2,0.1-0.5,0.1-0.9l0-7.4c0-0.3,0-0.6,0-0.8c0-0.3,0-0.5,0-0.6c-0.2,0-0.4,0-0.7,0c-0.3,0-0.5,0-0.6,0V99h2.6l5.9,7.6
		c0.3,0.3,0.5,0.6,0.7,0.9c0.2,0.3,0.3,0.5,0.5,0.7h0v-6.5c0-0.3,0-0.6,0-0.9c0-0.3,0-0.5,0-0.6c-0.2,0-0.4,0-0.7,0
		c-0.3,0-0.5,0-0.6,0V99h3.8v1c-0.3,0-0.6,0.1-0.8,0.2c-0.2,0.1-0.3,0.3-0.4,0.5c-0.1,0.3-0.1,0.6-0.1,1.1l0,10L235.3,111.8
		L235.3,111.8z"/>
	<path class="st1" d="M62.4,106.4l-34.2-0.8c-0.3,0-0.5,0-0.5-0.2c0-0.2,0.2-0.2,0.5-0.2l34.3-0.9L62.4,106.4
		C62.5,106.4,62.4,106.4,62.4,106.4z"/>
	<path class="st1" d="M244.8,106.4l34.2-0.8c0.3,0,0.5,0,0.5-0.2c0-0.2-0.2-0.2-0.5-0.2l-34.3-0.9L244.8,106.4
		C244.7,106.4,244.8,106.4,244.8,106.4z"/>
	<path class="st1" d="M289.8,55.1c-0.4,0-0.7,0-0.9-0.1c-0.3-0.1-0.5-0.2-0.7-0.4c-0.2-0.2-0.4-0.3-0.5-0.6l0-0.1l0.6-0.5l0,0.1
		c0.1,0.2,0.2,0.3,0.3,0.5c0.1,0.1,0.3,0.2,0.5,0.3c0.2,0.1,0.4,0.1,0.7,0.1c0.2,0,0.4,0,0.6-0.1c0.2-0.1,0.3-0.1,0.4-0.2
		c0.1-0.1,0.1-0.2,0.1-0.4c0-0.1,0-0.3-0.1-0.4c-0.1-0.1-0.3-0.2-0.5-0.3l-1.1-0.3c-0.3-0.1-0.5-0.2-0.7-0.3
		c-0.2-0.1-0.3-0.3-0.4-0.4c-0.1-0.2-0.1-0.4-0.1-0.6c0-0.3,0.1-0.5,0.2-0.7c0.1-0.2,0.4-0.4,0.6-0.5c0.3-0.1,0.6-0.2,1-0.2
		c0.4,0,0.8,0.1,1.1,0.3c0.3,0.2,0.6,0.4,0.8,0.8l0,0.1l-0.6,0.5l0-0.1c-0.2-0.3-0.4-0.5-0.6-0.6c-0.2-0.1-0.5-0.2-0.8-0.2
		c-0.2,0-0.4,0-0.6,0.1c-0.1,0.1-0.3,0.1-0.3,0.3c-0.1,0.1-0.1,0.2-0.1,0.4c0,0.1,0,0.3,0.1,0.4c0.1,0.1,0.3,0.2,0.6,0.3l1,0.2
		c0.5,0.1,0.8,0.3,1,0.5c0.2,0.2,0.3,0.5,0.3,0.8c0,0.3-0.1,0.5-0.2,0.8c-0.2,0.2-0.4,0.4-0.7,0.5C290.5,55,290.2,55.1,289.8,55.1
		L289.8,55.1z"/>
	<path class="st1" d="M296.8,55v-3l0-0.8l-1.4,3.9h-0.6l-1.4-3.9l0,0.8V55h-0.7v-4.9h1l1.1,2.9l0.3,1l0.3-1l1-2.9h1V55H296.8z"/>
</g>
</svg>
