<?xml version="1.0" encoding="utf-8"?>
<!-- Generator: Adobe Illustrator 27.6.1, SVG Export Plug-In . SVG Version: 6.00 Build 0)  -->
<svg version="1.1" id="Layer_1" xmlns="http://www.w3.org/2000/svg" xmlns:xlink="http://www.w3.org/1999/xlink" x="0px" y="0px"
	 viewBox="0 0 28 14" style="enable-background:new 0 0 28 14;" xml:space="preserve">
<style type="text/css">
	.st0{fill:#FFFFFF;stroke:#FFFFFF;}
	.st1{fill:#AB2328;}
	.st2{fill:#FFFFFF;}
</style>
<g id="svg4619" xmlns:rdf="http://www.w3.org/1999/02/22-rdf-syntax-ns#" xmlns:sodipodi="http://sodipodi.sourceforge.net/DTD/sodipodi-0.dtd" xmlns:cc="http://creativecommons.org/ns#" xmlns:svg="http://www.w3.org/2000/svg" xmlns:dc="http://purl.org/dc/elements/1.1/" xmlns:inkscape="http://www.inkscape.org/namespaces/inkscape" sodipodi:docname="suitcase-15.svg">
	<g>
		<circle class="st0" cx="14" cy="7" r="5"/>
	</g>
</g>
<g id="eye">
	<path class="st1" d="M19.6,7.1c-0.5,1.2-1.4,2.1-2.5,2.8c-0.7,0.5-1.4,0.8-2.2,0.9c-1,0.2-2,0.1-3-0.4C10.6,9.9,9.5,9,8.7,7.8
		C8.6,7.6,8.5,7.5,8.5,7.3c-0.1-0.2-0.1-0.4,0-0.6c0.2-0.4,0.4-0.7,0.6-1c0.9-1,1.9-1.8,3.3-2.3c1.2-0.4,2.5-0.3,3.7,0.2
		c1.3,0.6,2.3,1.5,3.1,2.7"/>
	<path class="st1" d="M11.2,7c0,1.5,1.2,2.8,2.7,2.8c1.6,0,2.8-1.2,2.9-2.7c0-1.6-1.2-2.8-2.8-2.9C12.4,4.2,11.2,5.5,11.2,7z"/>
	<path class="st2" d="M11.2,7c0-1.5,1.2-2.8,2.8-2.7c1.5,0,2.8,1.3,2.8,2.9c0,1.5-1.3,2.8-2.9,2.7C12.4,9.8,11.2,8.6,11.2,7z
		 M14.6,5.4c-0.6-0.3-1.5-0.1-2,0.6c-0.5,0.8-0.4,1.7,0.2,2.3c0.6,0.6,1.6,0.6,2.2,0.1c0.7-0.5,0.8-1.4,0.5-2
		c-0.4,0.3-0.8,0.4-1.1,0C14.3,6.3,14.2,5.8,14.6,5.4z"/>
	<path class="st1" d="M14.6,5.4c-0.4,0.4-0.3,0.9-0.1,1.1c0.3,0.3,0.7,0.3,1.1,0c0.3,0.5,0.1,1.4-0.5,2c-0.7,0.4-1.7,0.4-2.3-0.2
		s-0.7-1.5-0.3-2.2C13,5.3,13.9,5.1,14.6,5.4z"/>
</g>
</svg>
